<mxfile host="app.diagrams.net" modified="2023-05-12T02:19:40.519Z" agent="Mozilla/5.0 (Windows NT 10.0; Win64; x64) AppleWebKit/537.36 (KHTML, like Gecko) Chrome/112.0.0.0 Safari/537.36" etag="ZKYFb7z6XFKC25d0MvRV" version="21.2.9" type="github" pages="2">
  <diagram id="C5RBs43oDa-KdzZeNtuy" name="创建活动">
    <mxGraphModel dx="1050" dy="549" grid="1" gridSize="10" guides="1" tooltips="1" connect="1" arrows="1" fold="1" page="1" pageScale="1" pageWidth="827" pageHeight="1169" math="0" shadow="0">
      <root>
        <mxCell id="WIyWlLk6GJQsqaUBKTNV-0" />
        <mxCell id="WIyWlLk6GJQsqaUBKTNV-1" parent="WIyWlLk6GJQsqaUBKTNV-0" />
        <mxCell id="WIyWlLk6GJQsqaUBKTNV-2" value="" style="rounded=0;html=1;jettySize=auto;orthogonalLoop=1;fontSize=11;endArrow=block;endFill=0;endSize=8;strokeWidth=1;shadow=0;labelBackgroundColor=none;edgeStyle=orthogonalEdgeStyle;strokeColor=#E07A5F;fontColor=default;" parent="WIyWlLk6GJQsqaUBKTNV-1" source="WIyWlLk6GJQsqaUBKTNV-3" edge="1">
          <mxGeometry relative="1" as="geometry">
            <mxPoint x="220" y="170" as="targetPoint" />
          </mxGeometry>
        </mxCell>
        <mxCell id="WIyWlLk6GJQsqaUBKTNV-3" value="创建活动" style="rounded=1;whiteSpace=wrap;html=1;fontSize=12;glass=0;strokeWidth=1;shadow=0;labelBackgroundColor=none;fillColor=#F2CC8F;strokeColor=#E07A5F;fontColor=#393C56;" parent="WIyWlLk6GJQsqaUBKTNV-1" vertex="1">
          <mxGeometry x="160" y="80" width="120" height="40" as="geometry" />
        </mxCell>
        <mxCell id="NRBCZEfhZqXu91uGqOcq-2" value="" style="edgeStyle=orthogonalEdgeStyle;rounded=0;orthogonalLoop=1;jettySize=auto;html=1;labelBackgroundColor=none;strokeColor=#E07A5F;fontColor=default;" edge="1" parent="WIyWlLk6GJQsqaUBKTNV-1" source="WIyWlLk6GJQsqaUBKTNV-7" target="WIyWlLk6GJQsqaUBKTNV-12">
          <mxGeometry relative="1" as="geometry" />
        </mxCell>
        <mxCell id="WIyWlLk6GJQsqaUBKTNV-7" value="添加活动配置" style="rounded=1;whiteSpace=wrap;html=1;fontSize=12;glass=0;strokeWidth=1;shadow=0;labelBackgroundColor=none;fillColor=#F2CC8F;strokeColor=#E07A5F;fontColor=#393C56;" parent="WIyWlLk6GJQsqaUBKTNV-1" vertex="1">
          <mxGeometry x="160" y="170" width="120" height="40" as="geometry" />
        </mxCell>
        <mxCell id="NRBCZEfhZqXu91uGqOcq-4" value="" style="edgeStyle=orthogonalEdgeStyle;rounded=0;orthogonalLoop=1;jettySize=auto;html=1;labelBackgroundColor=none;strokeColor=#E07A5F;fontColor=default;" edge="1" parent="WIyWlLk6GJQsqaUBKTNV-1" source="WIyWlLk6GJQsqaUBKTNV-11" target="NRBCZEfhZqXu91uGqOcq-0">
          <mxGeometry relative="1" as="geometry" />
        </mxCell>
        <mxCell id="WIyWlLk6GJQsqaUBKTNV-11" value="添加策略" style="rounded=1;whiteSpace=wrap;html=1;fontSize=12;glass=0;strokeWidth=1;shadow=0;labelBackgroundColor=none;fillColor=#F2CC8F;strokeColor=#E07A5F;fontColor=#393C56;" parent="WIyWlLk6GJQsqaUBKTNV-1" vertex="1">
          <mxGeometry x="160" y="330" width="120" height="40" as="geometry" />
        </mxCell>
        <mxCell id="NRBCZEfhZqXu91uGqOcq-3" value="" style="edgeStyle=orthogonalEdgeStyle;rounded=0;orthogonalLoop=1;jettySize=auto;html=1;labelBackgroundColor=none;strokeColor=#E07A5F;fontColor=default;" edge="1" parent="WIyWlLk6GJQsqaUBKTNV-1" source="WIyWlLk6GJQsqaUBKTNV-12" target="WIyWlLk6GJQsqaUBKTNV-11">
          <mxGeometry relative="1" as="geometry" />
        </mxCell>
        <mxCell id="WIyWlLk6GJQsqaUBKTNV-12" value="添加奖品配置" style="rounded=1;whiteSpace=wrap;html=1;fontSize=12;glass=0;strokeWidth=1;shadow=0;labelBackgroundColor=none;fillColor=#F2CC8F;strokeColor=#E07A5F;fontColor=#393C56;" parent="WIyWlLk6GJQsqaUBKTNV-1" vertex="1">
          <mxGeometry x="160" y="250" width="120" height="40" as="geometry" />
        </mxCell>
        <mxCell id="NRBCZEfhZqXu91uGqOcq-0" value="添加策略明细" style="rounded=1;whiteSpace=wrap;html=1;fontSize=12;glass=0;strokeWidth=1;shadow=0;labelBackgroundColor=none;fillColor=#F2CC8F;strokeColor=#E07A5F;fontColor=#393C56;" vertex="1" parent="WIyWlLk6GJQsqaUBKTNV-1">
          <mxGeometry x="160" y="420" width="120" height="40" as="geometry" />
        </mxCell>
      </root>
    </mxGraphModel>
  </diagram>
  <diagram id="ECwiSCp8HuZSMyAcB4ne" name="抽奖流程">
    <mxGraphModel dx="2327" dy="1953" grid="1" gridSize="10" guides="1" tooltips="1" connect="1" arrows="1" fold="1" page="1" pageScale="1" pageWidth="827" pageHeight="1169" math="0" shadow="0">
      <root>
        <mxCell id="0" />
        <mxCell id="1" parent="0" />
        <mxCell id="-Rx22H82Bghy7LqqbVZF-41" value="" style="edgeStyle=orthogonalEdgeStyle;rounded=0;orthogonalLoop=1;jettySize=auto;html=1;strokeColor=#E07A5F;fontColor=#393C56;fillColor=#F2CC8F;" edge="1" parent="1" source="-Rx22H82Bghy7LqqbVZF-2" target="-Rx22H82Bghy7LqqbVZF-13">
          <mxGeometry relative="1" as="geometry" />
        </mxCell>
        <mxCell id="-Rx22H82Bghy7LqqbVZF-2" value="开始" style="rounded=1;whiteSpace=wrap;html=1;strokeColor=#E07A5F;fontColor=#393C56;fillColor=#F2CC8F;labelBackgroundColor=none;" vertex="1" parent="1">
          <mxGeometry x="250" y="-20" width="120" height="60" as="geometry" />
        </mxCell>
        <mxCell id="-Rx22H82Bghy7LqqbVZF-43" value="" style="edgeStyle=orthogonalEdgeStyle;rounded=0;orthogonalLoop=1;jettySize=auto;html=1;strokeColor=#E07A5F;fontColor=#393C56;fillColor=#F2CC8F;" edge="1" parent="1" source="-Rx22H82Bghy7LqqbVZF-3" target="-Rx22H82Bghy7LqqbVZF-5">
          <mxGeometry relative="1" as="geometry" />
        </mxCell>
        <mxCell id="-Rx22H82Bghy7LqqbVZF-3" value="检查和初始化数据" style="rounded=0;whiteSpace=wrap;html=1;strokeColor=#E07A5F;fontColor=#393C56;fillColor=#F2CC8F;" vertex="1" parent="1">
          <mxGeometry x="250" y="200" width="120" height="60" as="geometry" />
        </mxCell>
        <mxCell id="-Rx22H82Bghy7LqqbVZF-4" value="结束" style="rounded=1;whiteSpace=wrap;html=1;strokeColor=#E07A5F;fontColor=#393C56;fillColor=#F2CC8F;labelBackgroundColor=none;" vertex="1" parent="1">
          <mxGeometry x="1040" y="1050" width="120" height="60" as="geometry" />
        </mxCell>
        <mxCell id="-Rx22H82Bghy7LqqbVZF-50" value="" style="edgeStyle=orthogonalEdgeStyle;rounded=0;orthogonalLoop=1;jettySize=auto;html=1;strokeColor=#E07A5F;fontColor=#393C56;fillColor=#F2CC8F;" edge="1" parent="1" source="-Rx22H82Bghy7LqqbVZF-6" target="-Rx22H82Bghy7LqqbVZF-11">
          <mxGeometry relative="1" as="geometry" />
        </mxCell>
        <mxCell id="-Rx22H82Bghy7LqqbVZF-6" value="初始化数据" style="rounded=0;whiteSpace=wrap;html=1;strokeColor=#E07A5F;fontColor=#393C56;fillColor=#F2CC8F;" vertex="1" parent="1">
          <mxGeometry x="250" y="552" width="120" height="65" as="geometry" />
        </mxCell>
        <mxCell id="-Rx22H82Bghy7LqqbVZF-9" value="" style="edgeStyle=orthogonalEdgeStyle;rounded=0;orthogonalLoop=1;jettySize=auto;html=1;strokeColor=#E07A5F;fontColor=#393C56;fillColor=#F2CC8F;" edge="1" parent="1" source="-Rx22H82Bghy7LqqbVZF-8" target="-Rx22H82Bghy7LqqbVZF-6">
          <mxGeometry relative="1" as="geometry" />
        </mxCell>
        <mxCell id="-Rx22H82Bghy7LqqbVZF-48" style="edgeStyle=orthogonalEdgeStyle;rounded=0;orthogonalLoop=1;jettySize=auto;html=1;strokeColor=#E07A5F;fontColor=#393C56;fillColor=#F2CC8F;" edge="1" parent="1" source="-Rx22H82Bghy7LqqbVZF-8" target="-Rx22H82Bghy7LqqbVZF-4">
          <mxGeometry relative="1" as="geometry" />
        </mxCell>
        <mxCell id="-Rx22H82Bghy7LqqbVZF-49" value="否" style="edgeLabel;html=1;align=center;verticalAlign=middle;resizable=0;points=[];fontColor=#393C56;" vertex="1" connectable="0" parent="-Rx22H82Bghy7LqqbVZF-48">
          <mxGeometry x="-0.8448" y="1" relative="1" as="geometry">
            <mxPoint as="offset" />
          </mxGeometry>
        </mxCell>
        <mxCell id="-Rx22H82Bghy7LqqbVZF-8" value="检查数据是否有初始化" style="rhombus;whiteSpace=wrap;html=1;strokeColor=#E07A5F;fontColor=#393C56;fillColor=#F2CC8F;" vertex="1" parent="1">
          <mxGeometry x="255" y="390" width="110" height="120" as="geometry" />
        </mxCell>
        <mxCell id="-Rx22H82Bghy7LqqbVZF-10" value="否" style="text;html=1;strokeColor=none;fillColor=none;align=center;verticalAlign=middle;whiteSpace=wrap;rounded=0;fontColor=#393C56;" vertex="1" parent="1">
          <mxGeometry x="305" y="510" width="60" height="30" as="geometry" />
        </mxCell>
        <mxCell id="-Rx22H82Bghy7LqqbVZF-51" value="" style="edgeStyle=orthogonalEdgeStyle;rounded=0;orthogonalLoop=1;jettySize=auto;html=1;strokeColor=#E07A5F;fontColor=#393C56;fillColor=#F2CC8F;" edge="1" parent="1" source="-Rx22H82Bghy7LqqbVZF-11" target="-Rx22H82Bghy7LqqbVZF-12">
          <mxGeometry relative="1" as="geometry" />
        </mxCell>
        <mxCell id="-Rx22H82Bghy7LqqbVZF-11" value="保存奖品概率信息" style="rounded=0;whiteSpace=wrap;html=1;strokeColor=#E07A5F;fontColor=#393C56;fillColor=#F2CC8F;" vertex="1" parent="1">
          <mxGeometry x="390" y="552" width="120" height="65" as="geometry" />
        </mxCell>
        <mxCell id="-Rx22H82Bghy7LqqbVZF-12" value="单项概率缓存抽奖信息" style="rounded=0;whiteSpace=wrap;html=1;strokeColor=#E07A5F;fontColor=#393C56;fillColor=#F2CC8F;" vertex="1" parent="1">
          <mxGeometry x="540" y="552" width="120" height="65" as="geometry" />
        </mxCell>
        <mxCell id="-Rx22H82Bghy7LqqbVZF-55" value="" style="edgeStyle=orthogonalEdgeStyle;rounded=0;orthogonalLoop=1;jettySize=auto;html=1;strokeColor=#E07A5F;fontColor=#393C56;fillColor=#F2CC8F;" edge="1" parent="1" source="-Rx22H82Bghy7LqqbVZF-13" target="-Rx22H82Bghy7LqqbVZF-3">
          <mxGeometry relative="1" as="geometry" />
        </mxCell>
        <mxCell id="-Rx22H82Bghy7LqqbVZF-13" value="获取抽奖策略" style="rounded=0;whiteSpace=wrap;html=1;strokeColor=#E07A5F;fontColor=#393C56;fillColor=#F2CC8F;" vertex="1" parent="1">
          <mxGeometry x="250" y="80" width="120" height="60" as="geometry" />
        </mxCell>
        <mxCell id="-Rx22H82Bghy7LqqbVZF-58" style="edgeStyle=orthogonalEdgeStyle;rounded=0;orthogonalLoop=1;jettySize=auto;html=1;entryX=0.5;entryY=0;entryDx=0;entryDy=0;strokeColor=#E07A5F;fontColor=#393C56;fillColor=#F2CC8F;" edge="1" parent="1" source="-Rx22H82Bghy7LqqbVZF-14" target="-Rx22H82Bghy7LqqbVZF-16">
          <mxGeometry relative="1" as="geometry" />
        </mxCell>
        <mxCell id="-Rx22H82Bghy7LqqbVZF-14" value="获取不在抽奖范围内的奖品" style="rounded=0;whiteSpace=wrap;html=1;strokeColor=#E07A5F;fontColor=#393C56;fillColor=#F2CC8F;" vertex="1" parent="1">
          <mxGeometry x="255" y="670" width="120" height="60" as="geometry" />
        </mxCell>
        <mxCell id="-Rx22H82Bghy7LqqbVZF-15" value="&lt;pre style=&quot;background-color:#ffffff;color:#080808;font-family:&#39;宋体&#39;,monospace;font-size:9.8pt;&quot;&gt;包括：奖品库存为空、风控策略、临时调整等&lt;/pre&gt;" style="text;html=1;strokeColor=none;fillColor=none;align=center;verticalAlign=middle;whiteSpace=wrap;rounded=0;fontColor=#393C56;" vertex="1" parent="1">
          <mxGeometry x="-10" y="685" width="260" height="30" as="geometry" />
        </mxCell>
        <mxCell id="-Rx22H82Bghy7LqqbVZF-30" value="" style="edgeStyle=orthogonalEdgeStyle;rounded=0;orthogonalLoop=1;jettySize=auto;html=1;strokeColor=#E07A5F;fontColor=#393C56;fillColor=#F2CC8F;" edge="1" parent="1" source="-Rx22H82Bghy7LqqbVZF-16" target="-Rx22H82Bghy7LqqbVZF-20">
          <mxGeometry relative="1" as="geometry" />
        </mxCell>
        <mxCell id="-Rx22H82Bghy7LqqbVZF-31" style="edgeStyle=orthogonalEdgeStyle;rounded=0;orthogonalLoop=1;jettySize=auto;html=1;entryX=0;entryY=0.5;entryDx=0;entryDy=0;strokeColor=#E07A5F;fontColor=#393C56;fillColor=#F2CC8F;" edge="1" parent="1" source="-Rx22H82Bghy7LqqbVZF-16" target="-Rx22H82Bghy7LqqbVZF-19">
          <mxGeometry relative="1" as="geometry" />
        </mxCell>
        <mxCell id="-Rx22H82Bghy7LqqbVZF-16" value="执行抽奖算法" style="rounded=0;whiteSpace=wrap;html=1;strokeColor=#E07A5F;fontColor=#393C56;fillColor=#F2CC8F;" vertex="1" parent="1">
          <mxGeometry x="255" y="820" width="120" height="60" as="geometry" />
        </mxCell>
        <mxCell id="-Rx22H82Bghy7LqqbVZF-53" style="edgeStyle=orthogonalEdgeStyle;rounded=0;orthogonalLoop=1;jettySize=auto;html=1;entryX=0.44;entryY=0.033;entryDx=0;entryDy=0;entryPerimeter=0;strokeColor=#E07A5F;fontColor=#393C56;fillColor=#F2CC8F;" edge="1" parent="1" source="-Rx22H82Bghy7LqqbVZF-17" target="-Rx22H82Bghy7LqqbVZF-14">
          <mxGeometry relative="1" as="geometry" />
        </mxCell>
        <mxCell id="-Rx22H82Bghy7LqqbVZF-17" value="" style="swimlane;startSize=0;strokeColor=#6c8ebf;fillColor=#dae8fc;" vertex="1" parent="1">
          <mxGeometry x="180" y="190" width="500" height="440" as="geometry" />
        </mxCell>
        <mxCell id="-Rx22H82Bghy7LqqbVZF-5" value="根据策略模式获取抽奖服务" style="rounded=0;whiteSpace=wrap;html=1;strokeColor=#E07A5F;fontColor=#393C56;fillColor=#F2CC8F;" vertex="1" parent="-Rx22H82Bghy7LqqbVZF-17">
          <mxGeometry x="70" y="110" width="120" height="60" as="geometry" />
        </mxCell>
        <mxCell id="-Rx22H82Bghy7LqqbVZF-59" style="edgeStyle=orthogonalEdgeStyle;rounded=0;orthogonalLoop=1;jettySize=auto;html=1;entryX=0;entryY=0.75;entryDx=0;entryDy=0;strokeColor=#E07A5F;fontColor=#393C56;fillColor=#F2CC8F;" edge="1" parent="1" source="-Rx22H82Bghy7LqqbVZF-18" target="-Rx22H82Bghy7LqqbVZF-4">
          <mxGeometry relative="1" as="geometry">
            <Array as="points">
              <mxPoint x="315" y="1095" />
            </Array>
          </mxGeometry>
        </mxCell>
        <mxCell id="-Rx22H82Bghy7LqqbVZF-18" value="返回抽奖结果，扣将库存" style="rounded=0;whiteSpace=wrap;html=1;strokeColor=#E07A5F;fontColor=#393C56;fillColor=#F2CC8F;" vertex="1" parent="1">
          <mxGeometry x="255" y="920" width="120" height="60" as="geometry" />
        </mxCell>
        <mxCell id="-Rx22H82Bghy7LqqbVZF-32" value="" style="edgeStyle=orthogonalEdgeStyle;rounded=0;orthogonalLoop=1;jettySize=auto;html=1;strokeColor=#E07A5F;fontColor=#393C56;fillColor=#F2CC8F;" edge="1" parent="1" source="-Rx22H82Bghy7LqqbVZF-19" target="-Rx22H82Bghy7LqqbVZF-21">
          <mxGeometry relative="1" as="geometry" />
        </mxCell>
        <mxCell id="-Rx22H82Bghy7LqqbVZF-19" value="单一抽奖算法" style="rounded=0;whiteSpace=wrap;html=1;strokeColor=#E07A5F;fontColor=#393C56;fillColor=#F2CC8F;" vertex="1" parent="1">
          <mxGeometry x="450" y="770" width="120" height="60" as="geometry" />
        </mxCell>
        <mxCell id="-Rx22H82Bghy7LqqbVZF-36" value="" style="edgeStyle=orthogonalEdgeStyle;rounded=0;orthogonalLoop=1;jettySize=auto;html=1;strokeColor=#E07A5F;fontColor=#393C56;fillColor=#F2CC8F;" edge="1" parent="1" source="-Rx22H82Bghy7LqqbVZF-20" target="-Rx22H82Bghy7LqqbVZF-34">
          <mxGeometry relative="1" as="geometry" />
        </mxCell>
        <mxCell id="-Rx22H82Bghy7LqqbVZF-20" value="必中抽奖算法" style="rounded=0;whiteSpace=wrap;html=1;strokeColor=#E07A5F;fontColor=#393C56;fillColor=#F2CC8F;" vertex="1" parent="1">
          <mxGeometry x="450" y="860" width="120" height="60" as="geometry" />
        </mxCell>
        <mxCell id="-Rx22H82Bghy7LqqbVZF-33" value="" style="edgeStyle=orthogonalEdgeStyle;rounded=0;orthogonalLoop=1;jettySize=auto;html=1;strokeColor=#E07A5F;fontColor=#393C56;fillColor=#F2CC8F;" edge="1" parent="1" source="-Rx22H82Bghy7LqqbVZF-21" target="-Rx22H82Bghy7LqqbVZF-22">
          <mxGeometry relative="1" as="geometry" />
        </mxCell>
        <mxCell id="-Rx22H82Bghy7LqqbVZF-21" value="获取单项概率抽奖缓存信息" style="rounded=0;whiteSpace=wrap;html=1;strokeColor=#E07A5F;fontColor=#393C56;fillColor=#F2CC8F;" vertex="1" parent="1">
          <mxGeometry x="600" y="770" width="120" height="60" as="geometry" />
        </mxCell>
        <mxCell id="-Rx22H82Bghy7LqqbVZF-25" value="" style="edgeStyle=orthogonalEdgeStyle;rounded=0;orthogonalLoop=1;jettySize=auto;html=1;strokeColor=#E07A5F;fontColor=#393C56;fillColor=#F2CC8F;" edge="1" parent="1" source="-Rx22H82Bghy7LqqbVZF-22" target="-Rx22H82Bghy7LqqbVZF-24">
          <mxGeometry relative="1" as="geometry" />
        </mxCell>
        <mxCell id="-Rx22H82Bghy7LqqbVZF-22" value="生成随机数，根据斐波那契获取索引下标" style="rounded=0;whiteSpace=wrap;html=1;strokeColor=#E07A5F;fontColor=#393C56;fillColor=#F2CC8F;" vertex="1" parent="1">
          <mxGeometry x="750" y="770" width="120" height="60" as="geometry" />
        </mxCell>
        <mxCell id="-Rx22H82Bghy7LqqbVZF-29" style="edgeStyle=orthogonalEdgeStyle;rounded=0;orthogonalLoop=1;jettySize=auto;html=1;entryX=1;entryY=0.75;entryDx=0;entryDy=0;strokeColor=#E07A5F;fontColor=#393C56;fillColor=#F2CC8F;" edge="1" parent="1" source="-Rx22H82Bghy7LqqbVZF-24" target="-Rx22H82Bghy7LqqbVZF-18">
          <mxGeometry relative="1" as="geometry">
            <Array as="points">
              <mxPoint x="970" y="965" />
            </Array>
          </mxGeometry>
        </mxCell>
        <mxCell id="-Rx22H82Bghy7LqqbVZF-24" value="结果是否包含在被排除的奖品id中" style="rhombus;whiteSpace=wrap;html=1;strokeColor=#E07A5F;fontColor=#393C56;fillColor=#F2CC8F;" vertex="1" parent="1">
          <mxGeometry x="920" y="740" width="100" height="120" as="geometry" />
        </mxCell>
        <mxCell id="-Rx22H82Bghy7LqqbVZF-28" value="是" style="text;html=1;align=center;verticalAlign=middle;resizable=0;points=[];autosize=1;strokeColor=none;fillColor=none;fontColor=#393C56;" vertex="1" parent="1">
          <mxGeometry x="750" y="940" width="40" height="30" as="geometry" />
        </mxCell>
        <mxCell id="-Rx22H82Bghy7LqqbVZF-37" value="" style="edgeStyle=orthogonalEdgeStyle;rounded=0;orthogonalLoop=1;jettySize=auto;html=1;strokeColor=#E07A5F;fontColor=#393C56;fillColor=#F2CC8F;" edge="1" parent="1" source="-Rx22H82Bghy7LqqbVZF-34" target="-Rx22H82Bghy7LqqbVZF-35">
          <mxGeometry relative="1" as="geometry" />
        </mxCell>
        <mxCell id="-Rx22H82Bghy7LqqbVZF-34" value="获取抽奖信息，排除掉不在抽奖范围内的i奖品id值" style="rounded=0;whiteSpace=wrap;html=1;strokeColor=#E07A5F;fontColor=#393C56;fillColor=#F2CC8F;" vertex="1" parent="1">
          <mxGeometry x="600" y="860" width="120" height="60" as="geometry" />
        </mxCell>
        <mxCell id="-Rx22H82Bghy7LqqbVZF-40" style="edgeStyle=orthogonalEdgeStyle;rounded=0;orthogonalLoop=1;jettySize=auto;html=1;entryX=1;entryY=0.75;entryDx=0;entryDy=0;strokeColor=#E07A5F;fontColor=#393C56;fillColor=#F2CC8F;" edge="1" parent="1" source="-Rx22H82Bghy7LqqbVZF-35" target="-Rx22H82Bghy7LqqbVZF-18">
          <mxGeometry relative="1" as="geometry">
            <Array as="points">
              <mxPoint x="890" y="890" />
              <mxPoint x="890" y="965" />
            </Array>
          </mxGeometry>
        </mxCell>
        <mxCell id="-Rx22H82Bghy7LqqbVZF-35" value="重新计算奖品的概率值，生一个随机数，抽取中间值，返回中奖结果" style="rounded=0;whiteSpace=wrap;html=1;strokeColor=#E07A5F;fontColor=#393C56;fillColor=#F2CC8F;" vertex="1" parent="1">
          <mxGeometry x="750" y="860" width="120" height="60" as="geometry" />
        </mxCell>
        <mxCell id="-Rx22H82Bghy7LqqbVZF-44" value="" style="edgeStyle=orthogonalEdgeStyle;rounded=0;orthogonalLoop=1;jettySize=auto;html=1;strokeColor=#E07A5F;fontColor=#393C56;fillColor=#F2CC8F;" edge="1" parent="1" source="-Rx22H82Bghy7LqqbVZF-5" target="-Rx22H82Bghy7LqqbVZF-8">
          <mxGeometry relative="1" as="geometry" />
        </mxCell>
        <mxCell id="-Rx22H82Bghy7LqqbVZF-52" value="" style="swimlane;startSize=0;strokeColor=#6c8ebf;fillColor=#dae8fc;" vertex="1" parent="1">
          <mxGeometry x="235" y="740" width="825" height="260" as="geometry" />
        </mxCell>
      </root>
    </mxGraphModel>
  </diagram>
</mxfile>
